<svg width="181" height="52" viewBox="0 0 181 52" fill="none" xmlns="http://www.w3.org/2000/svg">
<path d="M51.2202 43.4919V10.7647H65.3466C67.7756 10.7647 69.901 11.2441 71.7227 12.2029C73.5444 13.1617 74.9613 14.5093 75.9734 16.2458C76.9855 17.9824 77.4915 20.0118 77.4915 22.3343C77.4915 24.678 76.9695 26.7075 75.9255 28.4227C74.8921 30.1379 73.4379 31.4589 71.5629 32.3858C69.6986 33.3126 67.5199 33.776 65.027 33.776H56.5895V26.8726H63.2373C64.2813 26.8726 65.1709 26.6915 65.9059 26.3293C66.6517 25.9564 67.2216 25.4291 67.6158 24.7473C68.0206 24.0655 68.2231 23.2611 68.2231 22.3343C68.2231 21.3968 68.0206 20.5978 67.6158 19.9373C67.2216 19.2661 66.6517 18.7547 65.9059 18.4032C65.1709 18.0409 64.2813 17.8598 63.2373 17.8598H60.1052V43.4919H51.2202ZM80.8793 43.4919V18.9465H89.4446V23.6127H89.7003C90.1478 21.8868 90.8562 20.6244 91.8257 19.8254C92.8058 19.0264 93.951 18.6269 95.2614 18.6269C95.6449 18.6269 96.0231 18.6588 96.396 18.7228C96.7795 18.776 97.1471 18.8559 97.4986 18.9625V26.4891C97.0618 26.34 96.5238 26.2281 95.8846 26.1535C95.2454 26.0789 94.6968 26.0417 94.2387 26.0417C93.3758 26.0417 92.5981 26.2387 91.9056 26.6329C91.2238 27.0164 90.6858 27.5598 90.2916 28.2629C89.8974 28.9554 89.7003 29.7704 89.7003 30.7079V43.4919H80.8793ZM100.391 43.4919V18.9465H109.212V43.4919H100.391ZM104.802 16.3897C103.608 16.3897 102.586 15.9955 101.733 15.2071C100.881 14.4188 100.455 13.4706 100.455 12.3627C100.455 11.2547 100.881 10.3066 101.733 9.51822C102.586 8.72987 103.608 8.33569 104.802 8.33569C106.005 8.33569 107.028 8.72987 107.87 9.51822C108.722 10.3066 109.148 11.2547 109.148 12.3627C109.148 13.4706 108.722 14.4188 107.87 15.2071C107.028 15.9955 106.005 16.3897 104.802 16.3897ZM122.527 29.6851V43.4919H113.706V18.9465H122.08V23.6127H122.336C122.868 22.0573 123.806 20.8375 125.148 19.9532C126.501 19.069 128.078 18.6269 129.878 18.6269C131.615 18.6269 133.122 19.0264 134.401 19.8254C135.69 20.6137 136.686 21.7004 137.389 23.0853C138.103 24.4703 138.454 26.0523 138.444 27.8314V43.4919H129.623V29.6851C129.633 28.4706 129.324 27.5172 128.696 26.8247C128.078 26.1322 127.215 25.786 126.107 25.786C125.383 25.786 124.749 25.9458 124.205 26.2654C123.673 26.5743 123.263 27.0218 122.975 27.6077C122.687 28.183 122.538 28.8755 122.527 29.6851ZM157.436 18.9465V25.3385H141.264V18.9465H157.436ZM144.396 13.0658H153.217V35.5978C153.217 35.9387 153.276 36.2263 153.393 36.4607C153.51 36.6844 153.691 36.8549 153.936 36.9721C154.181 37.0786 154.496 37.1319 154.879 37.1319C155.146 37.1319 155.455 37.0999 155.806 37.036C156.168 36.9721 156.435 36.9188 156.605 36.8762L157.883 43.0765C157.489 43.1936 156.925 43.3375 156.19 43.5079C155.465 43.6784 154.602 43.7902 153.601 43.8435C151.577 43.95 149.877 43.7423 148.503 43.2203C147.129 42.6876 146.095 41.8513 145.403 40.7114C144.711 39.5715 144.375 38.1439 144.396 36.4287V13.0658Z" fill="black"/>
<mask id="path-2-outside-1_503_1058" maskUnits="userSpaceOnUse" x="1" y="9" width="44" height="35" fill="black">
<rect fill="white" x="1" y="9" width="44" height="35"/>
<path d="M9.76385 10.2727V43H2.84446V10.2727H9.76385Z"/>
<path d="M27.0583 43H15.4568V10.2727H27.1542C30.4461 10.2727 33.2799 10.9279 35.6556 12.2383C38.0313 13.538 39.8584 15.4077 41.1368 17.8473C42.4259 20.2869 43.0704 23.206 43.0704 26.6044C43.0704 30.0135 42.4259 32.9432 41.1368 35.3935C39.8584 37.8437 38.0207 39.7241 35.6237 41.0344C33.2373 42.3448 30.3822 43 27.0583 43ZM22.3762 37.0714H26.7707C28.8161 37.0714 30.5367 36.7092 31.9323 35.9847C33.3385 35.2496 34.3932 34.1151 35.0963 32.581C35.8101 31.0362 36.167 29.044 36.167 26.6044C36.167 24.1861 35.8101 22.2099 35.0963 20.6758C34.3932 19.1417 33.3438 18.0124 31.9482 17.288C30.5526 16.5636 28.8321 16.2013 26.7867 16.2013H22.3762V37.0714Z"/>
</mask>
<path d="M9.76385 10.2727V43H2.84446V10.2727H9.76385Z" fill="#FF0000"/>
<path d="M27.0583 43H15.4568V10.2727H27.1542C30.4461 10.2727 33.2799 10.9279 35.6556 12.2383C38.0313 13.538 39.8584 15.4077 41.1368 17.8473C42.4259 20.2869 43.0704 23.206 43.0704 26.6044C43.0704 30.0135 42.4259 32.9432 41.1368 35.3935C39.8584 37.8437 38.0207 39.7241 35.6237 41.0344C33.2373 42.3448 30.3822 43 27.0583 43ZM22.3762 37.0714H26.7707C28.8161 37.0714 30.5367 36.7092 31.9323 35.9847C33.3385 35.2496 34.3932 34.1151 35.0963 32.581C35.8101 31.0362 36.167 29.044 36.167 26.6044C36.167 24.1861 35.8101 22.2099 35.0963 20.6758C34.3932 19.1417 33.3438 18.0124 31.9482 17.288C30.5526 16.5636 28.8321 16.2013 26.7867 16.2013H22.3762V37.0714Z" fill="#000DFF"/>
<path d="M9.76385 10.2727H10.7638V9.27273H9.76385V10.2727ZM9.76385 43V44H10.7638V43H9.76385ZM2.84446 43H1.84446V44H2.84446V43ZM2.84446 10.2727V9.27273H1.84446V10.2727H2.84446ZM8.76385 10.2727V43H10.7638V10.2727H8.76385ZM9.76385 42H2.84446V44H9.76385V42ZM3.84446 43V10.2727H1.84446V43H3.84446ZM2.84446 11.2727H9.76385V9.27273H2.84446V11.2727ZM15.4568 43H14.4568V44H15.4568V43ZM15.4568 10.2727V9.27273H14.4568V10.2727H15.4568ZM35.6556 12.2383L35.1727 13.1139L35.1757 13.1156L35.6556 12.2383ZM41.1368 17.8473L40.251 18.3115L40.2526 18.3145L41.1368 17.8473ZM41.1368 35.3935L40.2518 34.9279L40.2502 34.9309L41.1368 35.3935ZM35.6237 41.0344L35.144 40.157L35.1423 40.1579L35.6237 41.0344ZM22.3762 37.0714H21.3762V38.0714H22.3762V37.0714ZM31.9323 35.9847L32.393 36.8723L32.3955 36.871L31.9323 35.9847ZM35.0963 32.581L34.1885 32.1615L34.1873 32.1643L35.0963 32.581ZM35.0963 20.6758L34.1872 21.0924L34.1897 21.0976L35.0963 20.6758ZM31.9482 17.288L32.409 16.4004L31.9482 17.288ZM22.3762 16.2013V15.2013H21.3762V16.2013H22.3762ZM27.0583 42H15.4568V44H27.0583V42ZM16.4568 43V10.2727H14.4568V43H16.4568ZM15.4568 11.2727H27.1542V9.27273H15.4568V11.2727ZM27.1542 11.2727C30.313 11.2727 32.9733 11.9008 35.1727 13.1139L36.1386 11.3626C33.5865 9.95499 30.5792 9.27273 27.1542 9.27273V11.2727ZM35.1757 13.1156C37.3752 14.3189 39.0625 16.0434 40.2511 18.3115L42.0226 17.3832C40.6543 14.772 38.6875 12.7571 36.1356 11.361L35.1757 13.1156ZM40.2526 18.3145C41.45 20.5805 42.0704 23.3316 42.0704 26.6044H44.0704C44.0704 23.0803 43.4018 19.9934 42.021 17.3801L40.2526 18.3145ZM42.0704 26.6044C42.0704 29.8882 41.4498 32.6507 40.2518 34.9279L42.0218 35.8591C43.4019 33.2357 44.0704 30.1387 44.0704 26.6044H42.0704ZM40.2502 34.9309C39.0623 37.2078 37.3651 38.9428 35.144 40.157L36.1033 41.9119C38.6762 40.5054 40.6545 38.4797 42.0234 35.856L40.2502 34.9309ZM35.1423 40.1579C32.9327 41.3712 30.2508 42 27.0583 42V44C30.5136 44 33.5419 43.3184 36.105 41.911L35.1423 40.1579ZM22.3762 38.0714H26.7707V36.0714H22.3762V38.0714ZM26.7707 38.0714C28.9299 38.0714 30.8187 37.6894 32.393 36.8723L31.4715 35.0972C30.2546 35.7289 28.7024 36.0714 26.7707 36.0714V38.0714ZM32.3955 36.871C34.0113 36.0264 35.2161 34.7196 36.0054 32.9976L34.1873 32.1643C33.5703 33.5105 32.6657 34.4729 31.469 35.0985L32.3955 36.871ZM36.0041 33.0004C36.7991 31.28 37.167 29.1307 37.167 26.6044H35.167C35.167 28.9574 34.8211 30.7924 34.1885 32.1615L36.0041 33.0004ZM37.167 26.6044C37.167 24.0984 36.7988 21.9643 36.003 20.2539L34.1897 21.0976C34.8214 22.4555 35.167 24.2738 35.167 26.6044H37.167ZM36.0054 20.2591C35.2167 18.5383 34.0172 17.2353 32.409 16.4004L31.4875 18.1755C32.6705 18.7896 33.5697 19.745 34.1873 21.0924L36.0054 20.2591ZM32.409 16.4004C30.8347 15.5833 28.9458 15.2013 26.7867 15.2013V17.2013C28.7184 17.2013 30.2706 17.5438 31.4875 18.1755L32.409 16.4004ZM26.7867 15.2013H22.3762V17.2013H26.7867V15.2013ZM21.3762 16.2013V37.0714H23.3762V16.2013H21.3762Z" fill="#FFF1F1" mask="url(#path-2-outside-1_503_1058)"/>
</svg>
