<svg width="187" height="55" viewBox="0 0 187 55" fill="none" xmlns="http://www.w3.org/2000/svg">
<path d="M58.1094 43V10.2727H72.2358C74.6648 10.2727 76.7901 10.7521 78.6119 11.7109C80.4336 12.6697 81.8505 14.0174 82.8626 15.7539C83.8746 17.4904 84.3807 19.5199 84.3807 21.8423C84.3807 24.1861 83.8587 26.2156 82.8146 27.9308C81.7813 29.646 80.3271 30.967 78.4521 31.8938C76.5877 32.8207 74.4091 33.2841 71.9162 33.2841H63.4787V26.3807H70.1264C71.1705 26.3807 72.06 26.1996 72.7951 25.8374C73.5408 25.4645 74.1108 24.9371 74.505 24.2553C74.9098 23.5735 75.1122 22.7692 75.1122 21.8423C75.1122 20.9048 74.9098 20.1058 74.505 19.4453C74.1108 18.7741 73.5408 18.2628 72.7951 17.9112C72.06 17.549 71.1705 17.3679 70.1264 17.3679H66.9943V43H58.1094ZM87.7685 43V18.4545H96.3338V23.1207H96.5895C97.0369 21.3949 97.7454 20.1325 98.7148 19.3335C99.695 18.5344 100.84 18.1349 102.151 18.1349C102.534 18.1349 102.912 18.1669 103.285 18.2308C103.669 18.2841 104.036 18.364 104.388 18.4705V25.9972C103.951 25.848 103.413 25.7362 102.774 25.6616C102.135 25.587 101.586 25.5497 101.128 25.5497C100.265 25.5497 99.4872 25.7468 98.7947 26.141C98.1129 26.5245 97.5749 27.0678 97.1808 27.771C96.7866 28.4634 96.5895 29.2784 96.5895 30.2159V43H87.7685ZM107.28 43V18.4545H116.101V43H107.28ZM111.691 15.8977C110.498 15.8977 109.475 15.5036 108.623 14.7152C107.77 13.9268 107.344 12.9787 107.344 11.8707C107.344 10.7628 107.77 9.81463 108.623 9.02628C109.475 8.23793 110.498 7.84375 111.691 7.84375C112.895 7.84375 113.917 8.23793 114.759 9.02628C115.611 9.81463 116.037 10.7628 116.037 11.8707C116.037 12.9787 115.611 13.9268 114.759 14.7152C113.917 15.5036 112.895 15.8977 111.691 15.8977ZM129.417 29.1932V43H120.596V18.4545H128.969V23.1207H129.225C129.758 21.5653 130.695 20.3455 132.037 19.4613C133.39 18.5771 134.967 18.1349 136.767 18.1349C138.504 18.1349 140.011 18.5344 141.29 19.3335C142.579 20.1218 143.575 21.2085 144.278 22.5934C144.992 23.9783 145.343 25.5604 145.333 27.3395V43H136.512V29.1932C136.522 27.9787 136.214 27.0252 135.585 26.3327C134.967 25.6403 134.104 25.294 132.996 25.294C132.272 25.294 131.638 25.4538 131.095 25.7734C130.562 26.0824 130.152 26.5298 129.864 27.1158C129.576 27.6911 129.427 28.3835 129.417 29.1932ZM164.325 18.4545V24.8466H148.153V18.4545H164.325ZM151.285 12.5739H160.106V35.1058C160.106 35.4467 160.165 35.7344 160.282 35.9688C160.399 36.1925 160.581 36.3629 160.826 36.4801C161.071 36.5866 161.385 36.6399 161.768 36.6399C162.035 36.6399 162.344 36.608 162.695 36.544C163.057 36.4801 163.324 36.4268 163.494 36.3842L164.773 42.5845C164.378 42.7017 163.814 42.8455 163.079 43.016C162.354 43.1864 161.491 43.2983 160.49 43.3516C158.466 43.4581 156.767 43.2504 155.392 42.7283C154.018 42.1957 152.985 41.3594 152.292 40.2195C151.6 39.0795 151.264 37.652 151.285 35.9368V12.5739Z" fill="white"/>
<mask id="path-2-outside-1_592_810" maskUnits="userSpaceOnUse" x="1" y="10" width="44" height="35" fill="black">
<rect fill="white" x="1" y="10" width="44" height="35"/>
<path d="M9.76385 11.2727V44H2.84446V11.2727H9.76385Z"/>
<path d="M27.0583 44H15.4568V11.2727H27.1542C30.4461 11.2727 33.2799 11.9279 35.6556 13.2383C38.0313 14.538 39.8584 16.4077 41.1368 18.8473C42.4259 21.2869 43.0704 24.206 43.0704 27.6044C43.0704 31.0135 42.4259 33.9432 41.1368 36.3935C39.8584 38.8437 38.0207 40.7241 35.6237 42.0344C33.2373 43.3448 30.3822 44 27.0583 44ZM22.3762 38.0714H26.7707C28.8161 38.0714 30.5367 37.7092 31.9323 36.9847C33.3385 36.2496 34.3932 35.1151 35.0963 33.581C35.8101 32.0362 36.167 30.044 36.167 27.6044C36.167 25.1861 35.8101 23.2099 35.0963 21.6758C34.3932 20.1417 33.3438 19.0124 31.9482 18.288C30.5526 17.5636 28.8321 17.2013 26.7867 17.2013H22.3762V38.0714Z"/>
</mask>
<path d="M9.76385 11.2727V44H2.84446V11.2727H9.76385Z" fill="#FF0000"/>
<path d="M27.0583 44H15.4568V11.2727H27.1542C30.4461 11.2727 33.2799 11.9279 35.6556 13.2383C38.0313 14.538 39.8584 16.4077 41.1368 18.8473C42.4259 21.2869 43.0704 24.206 43.0704 27.6044C43.0704 31.0135 42.4259 33.9432 41.1368 36.3935C39.8584 38.8437 38.0207 40.7241 35.6237 42.0344C33.2373 43.3448 30.3822 44 27.0583 44ZM22.3762 38.0714H26.7707C28.8161 38.0714 30.5367 37.7092 31.9323 36.9847C33.3385 36.2496 34.3932 35.1151 35.0963 33.581C35.8101 32.0362 36.167 30.044 36.167 27.6044C36.167 25.1861 35.8101 23.2099 35.0963 21.6758C34.3932 20.1417 33.3438 19.0124 31.9482 18.288C30.5526 17.5636 28.8321 17.2013 26.7867 17.2013H22.3762V38.0714Z" fill="#000DFF"/>
<path d="M9.76385 11.2727H10.7638V10.2727H9.76385V11.2727ZM9.76385 44V45H10.7638V44H9.76385ZM2.84446 44H1.84446V45H2.84446V44ZM2.84446 11.2727V10.2727H1.84446V11.2727H2.84446ZM8.76385 11.2727V44H10.7638V11.2727H8.76385ZM9.76385 43H2.84446V45H9.76385V43ZM3.84446 44V11.2727H1.84446V44H3.84446ZM2.84446 12.2727H9.76385V10.2727H2.84446V12.2727ZM15.4568 44H14.4568V45H15.4568V44ZM15.4568 11.2727V10.2727H14.4568V11.2727H15.4568ZM35.6556 13.2383L35.1727 14.1139L35.1757 14.1156L35.6556 13.2383ZM41.1368 18.8473L40.251 19.3115L40.2526 19.3145L41.1368 18.8473ZM41.1368 36.3935L40.2518 35.9279L40.2502 35.9309L41.1368 36.3935ZM35.6237 42.0344L35.144 41.157L35.1423 41.1579L35.6237 42.0344ZM22.3762 38.0714H21.3762V39.0714H22.3762V38.0714ZM31.9323 36.9847L32.393 37.8723L32.3955 37.871L31.9323 36.9847ZM35.0963 33.581L34.1885 33.1615L34.1873 33.1643L35.0963 33.581ZM35.0963 21.6758L34.1872 22.0924L34.1897 22.0976L35.0963 21.6758ZM31.9482 18.288L32.409 17.4004L31.9482 18.288ZM22.3762 17.2013V16.2013H21.3762V17.2013H22.3762ZM27.0583 43H15.4568V45H27.0583V43ZM16.4568 44V11.2727H14.4568V44H16.4568ZM15.4568 12.2727H27.1542V10.2727H15.4568V12.2727ZM27.1542 12.2727C30.313 12.2727 32.9733 12.9008 35.1727 14.1139L36.1386 12.3626C33.5865 10.955 30.5792 10.2727 27.1542 10.2727V12.2727ZM35.1757 14.1156C37.3752 15.3189 39.0625 17.0434 40.2511 19.3115L42.0226 18.3832C40.6543 15.772 38.6875 13.7571 36.1356 12.361L35.1757 14.1156ZM40.2526 19.3145C41.45 21.5805 42.0704 24.3316 42.0704 27.6044H44.0704C44.0704 24.0803 43.4018 20.9934 42.021 18.3801L40.2526 19.3145ZM42.0704 27.6044C42.0704 30.8882 41.4498 33.6507 40.2518 35.9279L42.0218 36.8591C43.4019 34.2357 44.0704 31.1387 44.0704 27.6044H42.0704ZM40.2502 35.9309C39.0623 38.2078 37.3651 39.9428 35.144 41.157L36.1033 42.9119C38.6762 41.5054 40.6545 39.4797 42.0234 36.856L40.2502 35.9309ZM35.1423 41.1579C32.9327 42.3712 30.2508 43 27.0583 43V45C30.5136 45 33.5419 44.3184 36.105 42.911L35.1423 41.1579ZM22.3762 39.0714H26.7707V37.0714H22.3762V39.0714ZM26.7707 39.0714C28.9299 39.0714 30.8187 38.6894 32.393 37.8723L31.4715 36.0972C30.2546 36.7289 28.7024 37.0714 26.7707 37.0714V39.0714ZM32.3955 37.871C34.0113 37.0264 35.2161 35.7196 36.0054 33.9976L34.1873 33.1643C33.5703 34.5105 32.6657 35.4729 31.469 36.0985L32.3955 37.871ZM36.0041 34.0004C36.7991 32.28 37.167 30.1307 37.167 27.6044H35.167C35.167 29.9574 34.8211 31.7924 34.1885 33.1615L36.0041 34.0004ZM37.167 27.6044C37.167 25.0984 36.7988 22.9643 36.003 21.2539L34.1897 22.0976C34.8214 23.4555 35.167 25.2738 35.167 27.6044H37.167ZM36.0054 21.2591C35.2167 19.5383 34.0172 18.2353 32.409 17.4004L31.4875 19.1755C32.6705 19.7896 33.5697 20.745 34.1873 22.0924L36.0054 21.2591ZM32.409 17.4004C30.8347 16.5833 28.9458 16.2013 26.7867 16.2013V18.2013C28.7184 18.2013 30.2706 18.5438 31.4875 19.1755L32.409 17.4004ZM26.7867 16.2013H22.3762V18.2013H26.7867V16.2013ZM21.3762 17.2013V38.0714H23.3762V17.2013H21.3762Z" fill="#FFF1F1" mask="url(#path-2-outside-1_592_810)"/>
</svg>
